<svg width="97" height="97" viewBox="0 0 97 97" fill="none" xmlns="http://www.w3.org/2000/svg">
<g filter="url(#filter0_d_407_2781)">
<path d="M4.42743 39.5642C4.42349 39.3104 4.4227 39.0488 4.42391 38.7811C4.39297 35.7269 4.20601 34.3594 5.57525 33.9333C7.05923 33.4715 7.42711 33.7874 10.6539 30.9805C13.8806 28.1737 12.4075 8.72989 16.2303 4.68049C20.053 0.63108 32.4152 1.19414 32.4152 1.19414C32.4152 1.19414 32.362 10.6425 32.2379 10.8729C32.1138 11.1034 28.6318 10.5627 25.9823 12.3377C23.3327 14.1126 22.7863 27.8548 22.7863 31.1047C22.7863 34.2627 17.2877 37.1504 16.9122 38.5976C17.2905 40.0453 22.7859 42.9322 22.7859 46.0893C22.7859 49.3392 23.3324 63.0814 25.9819 64.8563C28.6315 66.6313 32.1135 66.0907 32.2376 66.3211C32.3616 66.5516 32.4148 75.9999 32.4148 75.9999C32.4148 75.9999 20.0527 76.5629 16.2299 72.5135C12.4072 68.4641 13.8803 49.0203 10.6535 46.2135C7.42678 43.4067 7.0589 43.7225 5.57492 43.2607C4.67016 42.9792 4.45743 41.4982 4.42743 39.5642Z" fill="#F0F2FF"/>
<path d="M90.5728 39.5642C90.5768 39.3104 90.5776 39.0488 90.5764 38.7811C90.6073 35.7269 90.7943 34.3594 89.425 33.9333C87.941 33.4715 87.5731 33.7874 84.3464 30.9805C81.1196 28.1737 82.5927 8.72989 78.77 4.68049C74.9473 0.63108 62.5851 1.19414 62.5851 1.19414C62.5851 1.19414 62.6383 10.6425 62.7624 10.8729C62.8865 11.1034 66.3685 10.5627 69.018 12.3377C71.6676 14.1126 72.214 27.8548 72.214 31.1047C72.214 34.2627 77.7126 37.1504 78.0881 38.5976C77.7098 40.0453 72.2143 42.9322 72.2143 46.0893C72.2143 49.3392 71.6679 63.0814 69.0183 64.8563C66.3688 66.6313 62.8868 66.0907 62.7627 66.3211C62.6386 66.5516 62.5854 75.9999 62.5854 75.9999C62.5854 75.9999 74.9476 76.5629 78.7703 72.5135C82.5931 68.4641 81.12 49.0203 84.3467 46.2135C87.5735 43.4067 87.9414 43.7225 89.4253 43.2607C90.3301 42.9792 90.5428 41.4982 90.5728 39.5642Z" fill="#F0F2FF"/>
<path d="M5.57492 43.2607L5.2778 44.2156L5.57492 43.2607ZM10.6535 46.2135L11.3098 45.459L11.3098 45.459L10.6535 46.2135ZM16.2299 72.5135L16.9571 71.8271L16.9571 71.8271L16.2299 72.5135ZM32.4148 75.9999L32.4603 76.9989C32.9965 76.9744 33.4178 76.531 33.4148 75.9943L32.4148 75.9999ZM32.2376 66.3211L33.118 65.847L33.118 65.847L32.2376 66.3211ZM25.9819 64.8563L25.4254 65.6871L25.4254 65.6871L25.9819 64.8563ZM5.57525 33.9333L5.87237 34.8882L5.87237 34.8882L5.57525 33.9333ZM10.6539 30.9805L11.3102 31.735L11.3102 31.735L10.6539 30.9805ZM16.2303 4.68049L16.9574 5.36695L16.9574 5.36695L16.2303 4.68049ZM32.4152 1.19414L33.4151 1.19977C33.4182 0.663003 32.9969 0.219596 32.4607 0.195173L32.4152 1.19414ZM32.2379 10.8729L33.1184 11.347L33.1184 11.347L32.2379 10.8729ZM25.9823 12.3377L25.4257 11.5069L25.4257 11.5069L25.9823 12.3377ZM89.4253 43.2607L89.7225 44.2156L89.4253 43.2607ZM84.3467 46.2135L83.6904 45.459L83.6904 45.459L84.3467 46.2135ZM78.7703 72.5135L78.0432 71.8271L78.0432 71.8271L78.7703 72.5135ZM62.5854 75.9999L61.5855 75.9943C61.5824 76.531 62.0037 76.9744 62.5399 76.9989L62.5854 75.9999ZM62.7627 66.3211L61.8822 65.847L61.8822 65.847L62.7627 66.3211ZM69.0183 64.8563L69.5749 65.6871L69.5749 65.6871L69.0183 64.8563ZM89.425 33.9333L89.1279 34.8882L89.1279 34.8882L89.425 33.9333ZM84.3464 30.9805L83.6901 31.735L83.6901 31.735L84.3464 30.9805ZM78.77 4.68049L78.0428 5.36695L78.0428 5.36695L78.77 4.68049ZM62.5851 1.19414L62.5396 0.195173C62.0034 0.219596 61.5821 0.663003 61.5851 1.19977L62.5851 1.19414ZM62.7624 10.8729L61.8819 11.347L61.8819 11.347L62.7624 10.8729ZM69.018 12.3377L69.5746 11.5069L69.5746 11.5069L69.018 12.3377ZM3.46084 35.4906C3.46332 36.6374 3.42887 37.6753 3.42392 38.7766L5.4239 38.7856C5.42828 37.8102 5.46322 36.5873 5.46084 35.4862L3.46084 35.4906ZM3.42392 38.7766C3.42269 39.049 3.42348 39.3175 3.42755 39.5797L5.42731 39.5487C5.4235 39.3032 5.42271 39.0486 5.4239 38.7856L3.42392 38.7766ZM3.42755 39.5797C3.44271 40.5571 3.50312 41.5142 3.70596 42.2862C3.89923 43.0219 4.31111 43.9148 5.2778 44.2156L5.87204 42.3059C5.93397 42.3251 5.7871 42.3368 5.64032 41.778C5.5031 41.2557 5.44215 40.5053 5.42731 39.5487L3.42755 39.5797ZM5.2778 44.2156C5.66987 44.3376 6.04016 44.4229 6.28034 44.4877C6.53724 44.557 6.75925 44.6291 7.02492 44.7578C7.58015 45.0266 8.39607 45.5752 9.99723 46.968L11.3098 45.459C9.68424 44.045 8.70285 43.3481 7.89646 42.9577C7.48132 42.7567 7.13144 42.6458 6.80116 42.5567C6.45415 42.4631 6.22197 42.4148 5.87204 42.3059L5.2778 44.2156ZM9.99723 46.968C10.197 47.1418 10.4567 47.5459 10.7164 48.3065C10.9667 49.0394 11.1781 49.9834 11.3618 51.1C11.7297 53.3353 11.9642 56.1103 12.2222 58.9869C12.478 61.8383 12.7565 64.7825 13.2163 67.2721C13.4465 68.5185 13.7269 69.679 14.0839 70.6738C14.4366 71.6565 14.8892 72.55 15.5028 73.2L16.9571 71.8271C16.615 71.4647 16.2774 70.8648 15.9664 69.9982C15.6596 69.1436 15.4028 68.0987 15.183 66.9089C14.743 64.5262 14.4714 61.6748 14.2142 58.8082C13.9594 55.9669 13.7182 53.1015 13.3353 50.7752C13.1437 49.6109 12.9109 48.5437 12.6091 47.6602C12.3169 46.8044 11.9168 45.9869 11.3098 45.459L9.99723 46.968ZM15.5028 73.2C16.6343 74.3986 18.3195 75.187 20.0802 75.7232C21.8614 76.2657 23.8349 76.5838 25.654 76.77C27.4779 76.9568 29.1753 77.0139 30.4149 77.0246C31.0356 77.0299 31.5436 77.0236 31.8978 77.0159C32.075 77.0121 32.2139 77.0079 32.3093 77.0046C32.357 77.003 32.3939 77.0016 32.4193 77.0006C32.432 77.0001 32.4418 76.9997 32.4486 76.9994C32.4521 76.9992 32.4548 76.9991 32.4567 76.999C32.4577 76.999 32.4585 76.9989 32.4591 76.9989C32.4594 76.9989 32.4597 76.9989 32.4598 76.9989C32.4601 76.9989 32.4603 76.9989 32.4148 75.9999C32.3693 75.0009 32.3694 75.0009 32.3695 75.0009C32.3695 75.0009 32.3695 75.0009 32.3694 75.0009C32.3693 75.0009 32.3689 75.0009 32.3684 75.001C32.3674 75.001 32.3656 75.0011 32.363 75.0012C32.358 75.0014 32.35 75.0018 32.3392 75.0022C32.3176 75.0031 32.2846 75.0043 32.2408 75.0058C32.1533 75.0088 32.0228 75.0128 31.8545 75.0164C31.5178 75.0237 31.0301 75.0298 30.4321 75.0246C29.2344 75.0143 27.6022 74.9591 25.8578 74.7804C24.1085 74.6013 22.2747 74.3009 20.6629 73.81C19.0306 73.3129 17.737 72.6532 16.9571 71.8271L15.5028 73.2ZM32.4148 75.9999C33.4148 75.9943 33.4148 75.9942 33.4148 75.9941C33.4148 75.9941 33.4148 75.994 33.4148 75.9938C33.4148 75.9935 33.4148 75.9931 33.4148 75.9925C33.4148 75.9913 33.4148 75.9896 33.4148 75.9873C33.4147 75.9827 33.4147 75.9759 33.4146 75.9669C33.4145 75.949 33.4144 75.9224 33.4142 75.8877C33.4138 75.8183 33.4131 75.7165 33.4123 75.5869C33.4106 75.3278 33.408 74.9574 33.4045 74.5122C33.3976 73.622 33.3871 72.4322 33.3726 71.2349C33.3582 70.0384 33.3399 68.8308 33.3173 67.9062C33.306 67.445 33.2936 67.0478 33.2797 66.7557C33.2728 66.6111 33.2651 66.482 33.2561 66.3801C33.2518 66.3306 33.246 66.2738 33.2377 66.2191C33.2336 66.1923 33.2269 66.1526 33.2163 66.1079C33.2107 66.0843 33.1851 65.9716 33.118 65.847L31.3571 66.7952C31.2939 66.6778 31.2721 66.5768 31.2703 66.5693C31.2635 66.5406 31.2606 66.5214 31.2603 66.5192C31.2595 66.5138 31.261 66.5231 31.2638 66.5555C31.2693 66.6173 31.2755 66.7148 31.2819 66.8506C31.2947 67.1193 31.3067 67.4981 31.3179 67.9551C31.3402 68.8669 31.3584 70.0646 31.3728 71.259C31.3872 72.4525 31.3977 73.6392 31.4046 74.5278C31.4081 74.972 31.4106 75.3416 31.4123 75.6C31.4132 75.7292 31.4138 75.8307 31.4142 75.8998C31.4144 75.9343 31.4146 75.9608 31.4147 75.9786C31.4147 75.9875 31.4148 75.9943 31.4148 75.9988C31.4148 76.001 31.4148 76.0027 31.4148 76.0038C31.4148 76.0044 31.4148 76.0048 31.4148 76.0051C31.4148 76.0053 31.4148 76.0054 31.4148 76.0054C31.4148 76.0055 31.4148 76.0055 32.4148 75.9999ZM33.118 65.847C32.9905 65.6102 32.806 65.486 32.7059 65.4298C32.5996 65.3701 32.5022 65.3389 32.4429 65.3225C32.3248 65.2898 32.2106 65.2764 32.137 65.2694C31.9824 65.2546 31.7876 65.2494 31.6049 65.2449C31.2136 65.2353 30.7191 65.2263 30.1513 65.1724C29.0055 65.0637 27.6639 64.7794 26.5385 64.0255L25.4254 65.6871C26.9495 66.7082 28.6736 67.0411 29.9623 67.1634C30.6117 67.2251 31.1766 67.235 31.5558 67.2443C31.7584 67.2493 31.8767 67.2536 31.9466 67.2603C31.9852 67.264 31.9612 67.2644 31.909 67.2499C31.8827 67.2426 31.8122 67.2217 31.7265 67.1736C31.647 67.1289 31.4769 67.0177 31.3571 66.7952L33.118 65.847ZM26.5385 64.0255C26.4259 63.9501 26.2235 63.7304 25.9831 63.2362C25.7532 62.7635 25.534 62.1355 25.331 61.3744C24.9255 59.8544 24.6154 57.9238 24.3838 55.9116C23.9211 51.8923 23.7859 47.6832 23.7859 46.0893H21.7859C21.7859 47.7453 21.924 52.0322 22.3969 56.1403C22.6331 58.1917 22.9564 60.2326 23.3986 61.89C23.6193 62.7176 23.8776 63.4799 24.1846 64.1111C24.4813 64.7208 24.8755 65.3188 25.4254 65.6871L26.5385 64.0255ZM23.7859 46.0893C23.7859 45.0094 23.3185 44.0346 22.738 43.2132C22.1539 42.3869 21.3917 41.6271 20.6651 40.9639C20.2991 40.6297 19.9316 40.3108 19.5922 40.0164C19.2486 39.7183 18.9381 39.4491 18.6671 39.1994C18.3938 38.9477 18.1858 38.7386 18.0413 38.5653C17.8824 38.3747 17.8703 38.3089 17.8797 38.3448L15.9447 38.8505C16.0487 39.2483 16.2911 39.5894 16.5052 39.8461C16.7336 40.12 17.017 40.3987 17.3121 40.6705C17.6095 40.9444 17.9444 41.2346 18.2817 41.5272C18.6233 41.8235 18.9722 42.1265 19.3167 42.441C20.0113 43.0751 20.6466 43.7195 21.1048 44.3676C21.5664 45.0207 21.7859 45.5906 21.7859 46.0893H23.7859ZM17.8797 38.3448C17.8837 38.3601 17.8893 38.387 17.8911 38.4237L15.8936 38.5236C15.8995 38.6404 15.9184 38.75 15.9447 38.8505L17.8797 38.3448ZM5.42738 39.587C5.4274 39.58 5.42741 39.573 5.42743 39.566L3.42743 39.5624C3.42742 39.5691 3.4274 39.5759 3.42739 39.5827L5.42738 39.587ZM5.42743 39.566C5.42793 39.2886 5.42641 39.0237 5.42385 38.771L3.42396 38.7912C3.42645 39.0378 3.42791 39.2946 3.42743 39.5624L5.42743 39.566ZM5.42385 38.771C5.40752 37.1583 5.35884 36.1943 5.46269 35.525C5.51017 35.219 5.5767 35.0906 5.61717 35.0359C5.64263 35.0015 5.69314 34.9439 5.87237 34.8882L5.27813 32.9785C4.77274 33.1357 4.33316 33.4089 4.00953 33.8462C3.70093 34.2632 3.5594 34.7474 3.48634 35.2183C3.34909 36.1029 3.40936 37.3497 3.42396 38.7912L5.42385 38.771ZM5.87237 34.8882C6.2223 34.7793 6.45448 34.7309 6.80149 34.6373C7.13177 34.5483 7.48165 34.4374 7.89679 34.2364C8.70318 33.846 9.68457 33.1491 11.3102 31.735L9.99756 30.226C8.3964 31.6188 7.58048 32.1674 7.02525 32.4363C6.75957 32.5649 6.53757 32.6371 6.28067 32.7063C6.04049 32.7711 5.6702 32.8565 5.27813 32.9785L5.87237 34.8882ZM11.3102 31.735C11.9171 31.2071 12.3172 30.3896 12.6095 29.5338C12.9112 28.6503 13.144 27.5831 13.3356 26.4189C13.7185 24.0925 13.9597 21.2272 14.2146 18.3858C14.4717 15.5192 14.7433 12.6678 15.1834 10.2851C15.4031 9.0953 15.66 8.05047 15.9667 7.19587C16.2777 6.3292 16.6153 5.72934 16.9574 5.36695L15.5031 3.99403C14.8895 4.64399 14.4369 5.53755 14.0842 6.52026C13.7272 7.51504 13.4468 8.67554 13.2166 9.9219C12.7569 12.4115 12.4783 15.3558 12.2226 18.2071C11.9645 21.0837 11.7301 23.8587 11.3622 26.0941C11.1784 27.2106 10.967 28.1546 10.7168 28.8875C10.457 29.6481 10.1973 30.0523 9.99756 30.226L11.3102 31.735ZM16.9574 5.36695C17.7373 4.54083 19.0309 3.88113 20.6632 3.38402C22.275 2.89316 24.1089 2.59271 25.8581 2.41358C27.6026 2.23494 29.2347 2.1797 30.4324 2.16939C31.0305 2.16425 31.5181 2.17032 31.8548 2.17762C32.0231 2.18127 32.1536 2.18522 32.2411 2.18822C32.2849 2.18972 32.3179 2.19098 32.3395 2.19184C32.3504 2.19228 32.3583 2.19261 32.3634 2.19283C32.3659 2.19294 32.3677 2.19301 32.3687 2.19306C32.3693 2.19308 32.3696 2.1931 32.3698 2.19311C32.3698 2.19311 32.3698 2.19311 32.3698 2.19311C32.3698 2.19311 32.3697 2.1931 32.4152 1.19414C32.4607 0.195173 32.4604 0.195163 32.4602 0.195152C32.46 0.195145 32.4597 0.195131 32.4594 0.195117C32.4588 0.19509 32.458 0.195055 32.4571 0.195012C32.4551 0.194926 32.4524 0.194808 32.449 0.194661C32.4421 0.194367 32.4323 0.193956 32.4196 0.193447C32.3942 0.192431 32.3574 0.191025 32.3096 0.189389C32.2142 0.186119 32.0753 0.181927 31.8982 0.178087C31.5439 0.17041 31.0359 0.164129 30.4152 0.169469C29.1756 0.180134 27.4783 0.237214 25.6544 0.423987C23.8352 0.610271 21.8618 0.928324 20.0805 1.47078C18.3198 2.007 16.6346 2.79544 15.5031 3.99403L16.9574 5.36695ZM32.4152 1.19414C31.4152 1.18851 31.4152 1.18854 31.4152 1.1886C31.4152 1.18867 31.4152 1.18878 31.4152 1.18891C31.4152 1.18919 31.4152 1.18962 31.4152 1.19018C31.4152 1.19131 31.4151 1.193 31.4151 1.19525C31.4151 1.19976 31.4151 1.2065 31.415 1.21541C31.4149 1.23322 31.4148 1.25969 31.4145 1.29424C31.4141 1.36335 31.4135 1.46479 31.4126 1.59402C31.411 1.85247 31.4084 2.22203 31.4049 2.66625C31.398 3.55483 31.3875 4.74154 31.3731 5.93506C31.3587 7.12947 31.3405 8.32713 31.3182 9.23896C31.3071 9.69592 31.295 10.0747 31.2823 10.3434C31.2758 10.4792 31.2696 10.5768 31.2642 10.6386C31.2613 10.6709 31.2598 10.6803 31.2606 10.6748C31.261 10.6727 31.2638 10.6534 31.2706 10.6247C31.2724 10.6172 31.2942 10.5162 31.3574 10.3988L33.1184 11.347C33.1855 11.2224 33.2111 11.1097 33.2167 11.0862C33.2273 11.0414 33.2339 11.0017 33.238 10.975C33.2463 10.9202 33.2521 10.8634 33.2565 10.8139C33.2654 10.712 33.2731 10.5829 33.28 10.4383C33.2939 10.1462 33.3064 9.74904 33.3176 9.28781C33.3402 8.36326 33.3586 7.15563 33.373 5.95915C33.3874 4.76179 33.3979 3.57201 33.4049 2.68182C33.4083 2.23666 33.4109 1.86627 33.4126 1.60713C33.4135 1.47755 33.4141 1.37578 33.4145 1.30636C33.4147 1.27166 33.4149 1.24504 33.415 1.22709C33.415 1.21811 33.4151 1.2113 33.4151 1.20672C33.4151 1.20443 33.4151 1.2027 33.4151 1.20154C33.4151 1.20096 33.4151 1.20052 33.4151 1.20022C33.4151 1.20007 33.4151 1.19996 33.4151 1.19989C33.4151 1.19981 33.4151 1.19977 32.4152 1.19414ZM31.3574 10.3988C31.4772 10.1764 31.6474 10.0651 31.7268 10.0205C31.8126 9.97231 31.883 9.95143 31.9093 9.94414C31.9615 9.92967 31.9856 9.93006 31.9469 9.93376C31.877 9.94045 31.7587 9.94473 31.5562 9.9497C31.1769 9.95901 30.612 9.96896 29.9626 10.0306C28.674 10.1529 26.9498 10.4858 25.4257 11.5069L26.5388 13.1685C27.6642 12.4146 29.0059 12.1304 30.1516 12.0216C30.7194 11.9678 31.2139 11.9587 31.6052 11.9491C31.788 11.9446 31.9827 11.9395 32.1374 11.9247C32.211 11.9176 32.3251 11.9043 32.4433 11.8715C32.5026 11.8551 32.5999 11.824 32.7063 11.7642C32.8063 11.708 32.9908 11.5839 33.1184 11.347L31.3574 10.3988ZM25.4257 11.5069C24.8759 11.8752 24.4816 12.4732 24.185 13.0829C23.8779 13.7142 23.6197 14.4765 23.3989 15.3041C22.9568 16.9614 22.6334 19.0024 22.3972 21.0537C21.9243 25.1618 21.7863 29.4487 21.7863 31.1047H23.7863C23.7863 29.5109 23.9214 25.3017 24.3841 21.2825C24.6158 19.2702 24.9258 17.3397 25.3313 15.8196C25.5344 15.0585 25.7535 14.4306 25.9835 13.9578C26.2239 13.4636 26.4262 13.2439 26.5388 13.1685L25.4257 11.5069ZM21.7863 31.1047C21.7863 31.6035 21.5666 32.1737 21.1047 32.827C20.6463 33.4753 20.0107 34.1199 19.3159 34.7541C18.9712 35.0687 18.6222 35.3718 18.2805 35.6681C17.9432 35.9608 17.6082 36.251 17.3108 36.525C17.0158 36.7969 16.7324 37.0756 16.5041 37.3497C16.2902 37.6064 16.0477 37.9479 15.9443 38.3465L17.8802 38.8488C17.8706 38.8855 17.8821 38.8202 18.0408 38.6297C18.185 38.4566 18.3928 38.2476 18.666 37.9959C18.9369 37.7463 19.2474 37.477 19.5911 37.1789C19.9304 36.8845 20.2981 36.5655 20.6642 36.2313C21.3909 35.568 22.1535 34.808 22.7378 33.9816C23.3186 33.16 23.7863 32.1849 23.7863 31.1047H21.7863ZM15.9443 38.3465C15.9184 38.4462 15.8997 38.5547 15.894 38.6704L17.8915 38.7703C17.8896 38.8067 17.8842 38.8334 17.8802 38.8488L15.9443 38.3465ZM89.5394 35.4862C89.537 36.5873 89.572 37.8102 89.5764 38.7856L91.5763 38.7766C91.5714 37.6753 91.5369 36.6374 91.5394 35.4906L89.5394 35.4862ZM89.5764 38.7856C89.5775 39.0486 89.5768 39.3032 89.573 39.5487L91.5727 39.5797C91.5768 39.3175 91.5776 39.049 91.5763 38.7766L89.5764 38.7856ZM89.573 39.5487C89.5581 40.5053 89.4972 41.2557 89.3599 41.778C89.2132 42.3368 89.0663 42.3251 89.1282 42.3059L89.7225 44.2156C90.6892 43.9148 91.101 43.0219 91.2943 42.2862C91.4971 41.5142 91.5575 40.5571 91.5727 39.5797L89.573 39.5487ZM89.1282 42.3059C88.7783 42.4148 88.5461 42.4631 88.1991 42.5567C87.8688 42.6458 87.5189 42.7567 87.1038 42.9577C86.2974 43.3481 85.316 44.045 83.6904 45.459L85.003 46.968C86.6042 45.5752 87.4201 45.0266 87.9753 44.7578C88.241 44.6291 88.463 44.557 88.7199 44.4877C88.9601 44.4229 89.3304 44.3376 89.7225 44.2156L89.1282 42.3059ZM83.6904 45.459C83.0835 45.9869 82.6834 46.8044 82.3911 47.6602C82.0894 48.5437 81.8566 49.6109 81.665 50.7752C81.2821 53.1015 81.0409 55.9669 80.786 58.8082C80.5289 61.6748 80.2572 64.5262 79.8172 66.9089C79.5975 68.0987 79.3406 69.1436 79.0339 69.9982C78.7229 70.8648 78.3853 71.4647 78.0432 71.8271L79.4975 73.2C80.1111 72.55 80.5637 71.6565 80.9163 70.6738C81.2734 69.679 81.5538 68.5185 81.784 67.2721C82.2437 64.7825 82.5223 61.8383 82.778 58.9869C83.0361 56.1103 83.2705 53.3353 83.6384 51.1C83.8222 49.9834 84.0336 49.0394 84.2838 48.3065C84.5436 47.5459 84.8033 47.1418 85.003 46.968L83.6904 45.459ZM78.0432 71.8271C77.2633 72.6532 75.9697 73.3129 74.3374 73.81C72.7256 74.3009 70.8917 74.6013 69.1425 74.7804C67.398 74.9591 65.7659 75.0143 64.5682 75.0246C63.9701 75.0298 63.4825 75.0237 63.1458 75.0164C62.9775 75.0128 62.847 75.0088 62.7595 75.0058C62.7157 75.0043 62.6827 75.0031 62.6611 75.0022C62.6502 75.0018 62.6423 75.0014 62.6372 75.0012C62.6347 75.0011 62.6329 75.001 62.6319 75.001C62.6313 75.0009 62.631 75.0009 62.6308 75.0009C62.6308 75.0009 62.6308 75.0009 62.6308 75.0009C62.6308 75.0009 62.6309 75.0009 62.5854 75.9999C62.5399 76.9989 62.5402 76.9989 62.5404 76.9989C62.5406 76.9989 62.5409 76.9989 62.5412 76.9989C62.5418 76.9989 62.5426 76.999 62.5435 76.999C62.5455 76.9991 62.5482 76.9992 62.5516 76.9994C62.5585 76.9997 62.5683 77.0001 62.581 77.0006C62.6064 77.0016 62.6432 77.003 62.691 77.0046C62.7864 77.0079 62.9252 77.0121 63.1024 77.0159C63.4567 77.0236 63.9647 77.0299 64.5854 77.0246C65.825 77.0139 67.5223 76.9568 69.3462 76.77C71.1654 76.5838 73.1388 76.2657 74.92 75.7232C76.6808 75.187 78.366 74.3986 79.4975 73.2L78.0432 71.8271ZM62.5854 75.9999C63.5854 76.0055 63.5854 76.0055 63.5854 76.0054C63.5854 76.0054 63.5854 76.0053 63.5854 76.0051C63.5854 76.0048 63.5854 76.0044 63.5854 76.0038C63.5854 76.0027 63.5855 76.001 63.5855 75.9988C63.5855 75.9943 63.5855 75.9875 63.5856 75.9786C63.5857 75.9608 63.5858 75.9343 63.5861 75.8998C63.5865 75.8307 63.5871 75.7292 63.5879 75.6C63.5896 75.3416 63.5922 74.972 63.5957 74.5278C63.6026 73.6392 63.6131 72.4525 63.6275 71.259C63.6419 70.0646 63.6601 68.8669 63.6824 67.9551C63.6935 67.4981 63.7056 67.1193 63.7183 66.8506C63.7248 66.7148 63.731 66.6173 63.7364 66.5555C63.7393 66.5231 63.7408 66.5138 63.74 66.5192C63.7396 66.5214 63.7368 66.5406 63.73 66.5693C63.7282 66.5768 63.7064 66.6778 63.6432 66.7952L61.8822 65.847C61.8151 65.9716 61.7895 66.0843 61.7839 66.1079C61.7733 66.1526 61.7667 66.1923 61.7626 66.2191C61.7543 66.2738 61.7485 66.3306 61.7441 66.3801C61.7352 66.482 61.7275 66.6111 61.7206 66.7557C61.7067 67.0478 61.6942 67.445 61.683 67.9062C61.6604 68.8308 61.642 70.0384 61.6276 71.2349C61.6132 72.4322 61.6027 73.622 61.5957 74.5122C61.5923 74.9574 61.5897 75.3278 61.588 75.5869C61.5871 75.7165 61.5865 75.8183 61.5861 75.8877C61.5859 75.9224 61.5857 75.949 61.5856 75.9669C61.5856 75.9759 61.5855 75.9827 61.5855 75.9873C61.5855 75.9896 61.5855 75.9913 61.5855 75.9925C61.5855 75.9931 61.5855 75.9935 61.5855 75.9938C61.5855 75.994 61.5855 75.9941 61.5855 75.9941C61.5855 75.9942 61.5855 75.9943 62.5854 75.9999ZM63.6432 66.7952C63.5234 67.0177 63.3532 67.1289 63.2738 67.1736C63.188 67.2217 63.1176 67.2426 63.0913 67.2499C63.0391 67.2644 63.015 67.264 63.0537 67.2603C63.1236 67.2536 63.2419 67.2493 63.4444 67.2443C63.8237 67.235 64.3886 67.2251 65.038 67.1634C66.3266 67.0411 68.0508 66.7082 69.5749 65.6871L68.4618 64.0255C67.3364 64.7794 65.9947 65.0637 64.849 65.1724C64.2812 65.2263 63.7867 65.2353 63.3954 65.2449C63.2126 65.2494 63.0179 65.2546 62.8632 65.2694C62.7896 65.2764 62.6755 65.2898 62.5573 65.3225C62.498 65.3389 62.4007 65.3701 62.2943 65.4298C62.1943 65.486 62.0098 65.6102 61.8822 65.847L63.6432 66.7952ZM69.5749 65.6871C70.1247 65.3188 70.519 64.7208 70.8156 64.1111C71.1227 63.4799 71.3809 62.7176 71.6017 61.89C72.0438 60.2326 72.3672 58.1917 72.6034 56.1403C73.0763 52.0322 73.2143 47.7453 73.2143 46.0893H71.2143C71.2143 47.6832 71.0792 51.8923 70.6165 55.9116C70.3848 57.9238 70.0748 59.8544 69.6693 61.3744C69.4662 62.1355 69.2471 62.7635 69.0171 63.2362C68.7767 63.7304 68.5744 63.9501 68.4618 64.0255L69.5749 65.6871ZM73.2143 46.0893C73.2143 45.5906 73.4339 45.0207 73.8955 44.3676C74.3536 43.7195 74.9889 43.0751 75.6835 42.441C76.0281 42.1265 76.377 41.8235 76.7186 41.5272C77.0559 41.2346 77.3908 40.9444 77.6882 40.6705C77.9833 40.3987 78.2667 40.12 78.4951 39.8461C78.7091 39.5894 78.9516 39.2483 79.0556 38.8505L77.1205 38.3448C77.1299 38.3089 77.1179 38.3747 76.959 38.5653C76.8145 38.7386 76.6065 38.9477 76.3332 39.1994C76.0622 39.4491 75.7517 39.7183 75.4081 40.0164C75.0687 40.3108 74.7012 40.6297 74.3351 40.9639C73.6086 41.6271 72.8464 42.3869 72.2623 43.2132C71.6817 44.0346 71.2143 45.0094 71.2143 46.0893H73.2143ZM79.0556 38.8505C79.0818 38.75 79.1008 38.6404 79.1066 38.5236L77.1091 38.4237C77.111 38.3871 77.1165 38.3601 77.1205 38.3448L79.0556 38.8505ZM91.5729 39.5827C91.5729 39.5748 91.5728 39.5692 91.5728 39.5624L89.5728 39.566C89.5728 39.5729 89.5729 39.5811 89.5729 39.587L91.5729 39.5827ZM91.5728 39.5624C91.5723 39.2946 91.5738 39.0378 91.5763 38.7912L89.5764 38.771C89.5738 39.0237 89.5723 39.2886 89.5728 39.566L91.5728 39.5624ZM91.5763 38.7912C91.5909 37.3497 91.6512 36.1029 91.5139 35.2183C91.4409 34.7474 91.2993 34.2632 90.9907 33.8462C90.6671 33.4089 90.2275 33.1357 89.7221 32.9785L89.1279 34.8882C89.3071 34.9439 89.3576 35.0015 89.3831 35.0359C89.4236 35.0906 89.4901 35.219 89.5376 35.525C89.6414 36.1943 89.5927 37.1583 89.5764 38.771L91.5763 38.7912ZM89.7221 32.9785C89.3301 32.8565 88.9598 32.7711 88.7196 32.7063C88.4627 32.6371 88.2407 32.5649 87.975 32.4363C87.4198 32.1674 86.6039 31.6188 85.0027 30.226L83.6901 31.735C85.3157 33.1491 86.2971 33.846 87.1035 34.2364C87.5186 34.4374 87.8685 34.5483 88.1988 34.6373C88.5458 34.7309 88.778 34.7793 89.1279 34.8882L89.7221 32.9785ZM85.0027 30.226C84.8029 30.0523 84.5432 29.6481 84.2835 28.8875C84.0332 28.1546 83.8219 27.2106 83.6381 26.0941C83.2702 23.8587 83.0357 21.0837 82.7777 18.2071C82.5219 15.3558 82.2434 12.4115 81.7836 9.9219C81.5535 8.67554 81.273 7.51504 80.916 6.52026C80.5633 5.53755 80.1107 4.64399 79.4972 3.99403L78.0428 5.36695C78.3849 5.72934 78.7225 6.3292 79.0336 7.19587C79.3403 8.05047 79.5972 9.0953 79.8169 10.2851C80.2569 12.6678 80.5286 15.5192 80.7857 18.3858C81.0406 21.2272 81.2818 24.0925 81.6646 26.4189C81.8563 27.5831 82.0891 28.6503 82.3908 29.5338C82.6831 30.3896 83.0832 31.2071 83.6901 31.735L85.0027 30.226ZM79.4972 3.99403C78.3657 2.79544 76.6805 2.007 74.9197 1.47078C73.1385 0.928324 71.165 0.610271 69.3459 0.423987C67.522 0.237214 65.8246 0.180134 64.585 0.169469C63.9644 0.164129 63.4564 0.17041 63.1021 0.178087C62.9249 0.181927 62.786 0.186119 62.6906 0.189389C62.6429 0.191025 62.606 0.192431 62.5807 0.193447C62.568 0.193956 62.5581 0.194367 62.5513 0.194661C62.5478 0.194808 62.5452 0.194926 62.5432 0.195012C62.5422 0.195055 62.5414 0.19509 62.5408 0.195117C62.5405 0.195131 62.5402 0.195145 62.5401 0.195152C62.5398 0.195163 62.5396 0.195173 62.5851 1.19414C62.6306 2.1931 62.6305 2.19311 62.6304 2.19311C62.6305 2.19311 62.6304 2.19311 62.6305 2.19311C62.6307 2.1931 62.631 2.19308 62.6315 2.19306C62.6326 2.19301 62.6344 2.19294 62.6369 2.19283C62.6419 2.19261 62.6499 2.19228 62.6607 2.19184C62.6824 2.19098 62.7154 2.18972 62.7591 2.18822C62.8467 2.18522 62.9771 2.18127 63.1454 2.17762C63.4821 2.17032 63.9698 2.16425 64.5678 2.16939C65.7656 2.1797 67.3977 2.23494 69.1422 2.41358C70.8914 2.59271 72.7252 2.89316 74.3371 3.38402C75.9694 3.88113 77.263 4.54083 78.0428 5.36695L79.4972 3.99403ZM62.5851 1.19414C61.5851 1.19977 61.5851 1.19981 61.5851 1.19989C61.5851 1.19996 61.5851 1.20008 61.5851 1.20022C61.5851 1.20052 61.5851 1.20096 61.5851 1.20154C61.5851 1.2027 61.5852 1.20443 61.5852 1.20672C61.5852 1.2113 61.5852 1.21811 61.5853 1.22709C61.5854 1.24504 61.5855 1.27166 61.5858 1.30636C61.5862 1.37578 61.5868 1.47755 61.5877 1.60713C61.5894 1.86627 61.5919 2.23666 61.5954 2.68182C61.6023 3.57202 61.6129 4.76179 61.6273 5.95915C61.6417 7.15563 61.66 8.36326 61.6826 9.28781C61.6939 9.74904 61.7064 10.1462 61.7203 10.4383C61.7271 10.5829 61.7348 10.712 61.7438 10.8139C61.7481 10.8634 61.754 10.9202 61.7623 10.975C61.7663 11.0017 61.773 11.0414 61.7836 11.0862C61.7892 11.1097 61.8148 11.2224 61.8819 11.347L63.6429 10.3988C63.7061 10.5162 63.7278 10.6172 63.7296 10.6247C63.7364 10.6534 63.7393 10.6727 63.7396 10.6748C63.7405 10.6803 63.7389 10.6709 63.7361 10.6386C63.7306 10.5768 63.7245 10.4792 63.718 10.3434C63.7052 10.0747 63.6932 9.69592 63.682 9.23896C63.6598 8.32713 63.6415 7.12947 63.6271 5.93506C63.6128 4.74154 63.6022 3.55483 63.5953 2.66625C63.5919 2.22203 63.5893 1.85247 63.5876 1.59401C63.5868 1.46479 63.5861 1.36335 63.5857 1.29424C63.5855 1.25969 63.5854 1.23322 63.5852 1.21541C63.5852 1.2065 63.5852 1.19976 63.5851 1.19525C63.5851 1.193 63.5851 1.19131 63.5851 1.19018C63.5851 1.18961 63.5851 1.18919 63.5851 1.18891C63.5851 1.18878 63.5851 1.18867 63.5851 1.1886C63.5851 1.18854 63.5851 1.18851 62.5851 1.19414ZM61.8819 11.347C62.0094 11.5839 62.1939 11.708 62.294 11.7642C62.4004 11.824 62.4977 11.8551 62.557 11.8715C62.6752 11.9043 62.7893 11.9176 62.8629 11.9247C63.0175 11.9395 63.2123 11.9446 63.395 11.9491C63.7864 11.9587 64.2808 11.9678 64.8487 12.0216C65.9944 12.1304 67.336 12.4146 68.4614 13.1685L69.5746 11.5069C68.0504 10.4858 66.3263 10.1529 65.0376 10.0306C64.3882 9.96896 63.8233 9.95901 63.4441 9.9497C63.2415 9.94473 63.1232 9.94045 63.0534 9.93376C63.0147 9.93006 63.0387 9.92967 63.0909 9.94414C63.1173 9.95143 63.1877 9.97231 63.2734 10.0205C63.3529 10.0651 63.5231 10.1764 63.6429 10.3988L61.8819 11.347ZM68.4614 13.1685C68.574 13.2439 68.7764 13.4636 69.0168 13.9578C69.2468 14.4306 69.4659 15.0585 69.669 15.8196C70.0745 17.3397 70.3845 19.2702 70.6161 21.2825C71.0788 25.3017 71.214 29.5109 71.214 31.1047H73.214C73.214 29.4487 73.0759 25.1618 72.603 21.0537C72.3669 19.0024 72.0435 16.9614 71.6014 15.3041C71.3806 14.4765 71.1224 13.7142 70.8153 13.0829C70.5187 12.4732 70.1244 11.8752 69.5746 11.5069L68.4614 13.1685ZM71.214 31.1047C71.214 32.1849 71.6817 33.16 72.2625 33.9816C72.8468 34.808 73.6093 35.568 74.3361 36.2313C74.7022 36.5655 75.0698 36.8845 75.4092 37.1789C75.7529 37.477 76.0633 37.7463 76.3343 37.9959C76.6075 38.2476 76.8153 38.4566 76.9595 38.6297C77.1182 38.8202 77.1296 38.8855 77.1201 38.8488L79.056 38.3465C78.9526 37.9479 78.7101 37.6064 78.4962 37.3497C78.2679 37.0756 77.9845 36.7969 77.6894 36.525C77.392 36.251 77.0571 35.9608 76.7197 35.6681C76.3781 35.3718 76.029 35.0687 75.6844 34.7541C74.9895 34.1199 74.354 33.4753 73.8956 32.827C73.4337 32.1737 73.214 31.6035 73.214 31.1047H71.214ZM77.1201 38.8488C77.1161 38.8334 77.1106 38.8066 77.1088 38.7703L79.1063 38.6704C79.1005 38.5548 79.0819 38.4462 79.056 38.3465L77.1201 38.8488Z" fill="url(#paint0_linear_407_2781)"/>
</g>
<path d="M50.4417 95.19H75.5349M71.1514 87.2905H83.9964" stroke="url(#paint1_linear_407_2781)" stroke-width="2" stroke-linecap="round" stroke-linejoin="round"/>
<defs>
<filter id="filter0_d_407_2781" x="0.398193" y="0.16748" width="96.2039" height="84.859" filterUnits="userSpaceOnUse" color-interpolation-filters="sRGB">
<feFlood flood-opacity="0" result="BackgroundImageFix"/>
<feColorMatrix in="SourceAlpha" type="matrix" values="0 0 0 0 0 0 0 0 0 0 0 0 0 0 0 0 0 0 127 0" result="hardAlpha"/>
<feOffset dx="1" dy="4"/>
<feGaussianBlur stdDeviation="2"/>
<feColorMatrix type="matrix" values="0 0 0 0 0 0 0 0 0 0 0 0 0 0 0 0 0 0 0.08 0"/>
<feBlend mode="normal" in2="BackgroundImageFix" result="effect1_dropShadow_407_2781"/>
<feBlend mode="normal" in="SourceGraphic" in2="effect1_dropShadow_407_2781" result="shape"/>
</filter>
<linearGradient id="paint0_linear_407_2781" x1="47.5001" y1="1.16748" x2="47.5001" y2="76.0265" gradientUnits="userSpaceOnUse">
<stop stop-color="#252E5D"/>
<stop offset="1" stop-color="#25425D"/>
</linearGradient>
<linearGradient id="paint1_linear_407_2781" x1="67.219" y1="87.2905" x2="67.219" y2="95.19" gradientUnits="userSpaceOnUse">
<stop stop-color="#252E5D"/>
<stop offset="1" stop-color="#25425D"/>
</linearGradient>
</defs>
</svg>
