<svg width="84" height="108" viewBox="0 0 84 108" fill="none" xmlns="http://www.w3.org/2000/svg">
<g filter="url(#filter0_d_407_2797)">
<path d="M58.3436 98.1646H4.27344V9.30272V1.45703H77.1909V9.30272V79.3173L58.3436 98.1646Z" fill="#F0F2FF"/>
<path d="M58.3436 98.1646H4.27344V9.30272M58.3436 98.1646L77.1909 79.3173M58.3436 98.1646V79.3173H77.1909M77.1909 79.3173V9.30272M12.307 19.8582H55.8718M12.307 27.8914H55.8718M12.307 35.3067H50.5059M12.307 43.9579H50.5059M12.307 52.609H28.5955M4.27344 9.30272V1.45703H77.1909V9.30272M4.27344 9.30272H77.1909M71.9749 5.28429H72.1292M67.3839 5.28429H67.5382" stroke="url(#paint0_linear_407_2797)" stroke-width="2" stroke-linecap="round" stroke-linejoin="round"/>
</g>
<defs>
<filter id="filter0_d_407_2797" x="0.273438" y="0.457031" width="82.9175" height="106.708" filterUnits="userSpaceOnUse" color-interpolation-filters="sRGB">
<feFlood flood-opacity="0" result="BackgroundImageFix"/>
<feColorMatrix in="SourceAlpha" type="matrix" values="0 0 0 0 0 0 0 0 0 0 0 0 0 0 0 0 0 0 127 0" result="hardAlpha"/>
<feOffset dx="1" dy="4"/>
<feGaussianBlur stdDeviation="2"/>
<feColorMatrix type="matrix" values="0 0 0 0 0 0 0 0 0 0 0 0 0 0 0 0 0 0 0.08 0"/>
<feBlend mode="normal" in2="BackgroundImageFix" result="effect1_dropShadow_407_2797"/>
<feBlend mode="normal" in="SourceGraphic" in2="effect1_dropShadow_407_2797" result="shape"/>
</filter>
<linearGradient id="paint0_linear_407_2797" x1="40.7322" y1="1.45703" x2="40.7322" y2="98.1646" gradientUnits="userSpaceOnUse">
<stop stop-color="#252E5D"/>
<stop offset="1" stop-color="#25425D"/>
</linearGradient>
</defs>
</svg>
