<svg width="151" height="151" viewBox="0 0 151 151" fill="none" xmlns="http://www.w3.org/2000/svg">
<circle cx="75.6023" cy="75.1831" r="75" fill="#323C5D"/>
<path d="M98.0499 45.6829C98.831 44.9019 98.8349 43.63 98.0055 42.9005C92.3217 37.9014 84.9935 35.1206 77.3786 35.1206C69.095 35.1206 61.1506 38.4113 55.2931 44.2687C49.4357 50.1261 46.145 58.0705 46.145 66.3542C46.145 73.9691 48.9258 81.2972 53.9249 86.9811C54.6544 87.8105 55.9263 87.8066 56.7073 87.0255L98.0499 45.6829Z" fill="#DFE2EC"/>
<path d="M53.1545 104.683C52.3735 105.464 52.3696 106.736 53.199 107.466C58.8829 112.465 66.211 115.246 73.8259 115.246C82.1095 115.246 90.0539 111.955 95.9114 106.098C101.769 100.24 105.059 92.2958 105.059 84.0122C105.059 76.3973 102.279 69.0691 97.2796 63.3853C96.5501 62.5559 95.2782 62.5598 94.4972 63.3409L53.1545 104.683Z" fill="#9FA9C6"/>
</svg>
