<svg width="694" height="936" viewBox="0 0 694 936" fill="none" xmlns="http://www.w3.org/2000/svg">
<g clip-path="url(#clip0_1187_1833)">
<path d="M70.592 825.43C69.03 826.992 69.031 829.529 70.61 831.074C139.173 898.157 231.324 935.787 327.354 935.787C424.72 935.787 518.097 897.107 586.945 828.259C655.792 759.411 694.471 666.033 694.471 568.668C694.471 472.638 656.846 380.487 589.76 311.924C588.215 310.345 585.678 310.344 584.116 311.906L327.354 568.668L70.592 825.43Z" fill="#AFB7D0" fill-opacity="0.16"/>
<path d="M623.878 110.354C625.44 108.792 625.44 106.256 623.861 104.711C555.298 37.625 463.146 0 367.116 0C269.751 0 176.373 38.678 107.526 107.526C38.678 176.373 0 269.751 0 367.116C0 463.146 37.625 555.297 104.711 623.86C106.256 625.439 108.792 625.44 110.354 623.878L367.116 367.116L623.878 110.354Z" fill="#DFE2EC" fill-opacity="0.16"/>
</g>
<defs>
<clipPath id="clip0_1187_1833">
<rect width="694" height="936" fill="white"/>
</clipPath>
</defs>
</svg>
