<svg width="60" height="81" viewBox="0 0 60 81" fill="none" xmlns="http://www.w3.org/2000/svg">
<path d="M52.7311 11.0157C53.5122 10.2347 53.5161 8.9628 52.6867 8.2333C47.0029 3.23413 39.6747 0.453369 32.0598 0.453369C23.7762 0.453369 15.8318 3.74405 9.97432 9.60149C4.11688 15.4589 0.826203 23.4033 0.826202 31.687C0.826202 39.3019 3.60696 46.63 8.60613 52.3139C9.33563 53.1433 10.6075 53.1394 11.3885 52.3583L52.7311 11.0157Z" fill="#DFE2EC"/>
<path d="M7.83577 70.0163C7.05472 70.7973 7.05081 72.0692 7.88022 72.7987C13.5641 77.7978 20.8922 80.5786 28.5071 80.5786C36.7907 80.5786 44.7351 77.2879 50.5926 71.4305C56.45 65.573 59.7407 57.6286 59.7407 49.345C59.7407 41.7301 56.96 34.4019 51.9608 28.7181C51.2313 27.8887 49.9594 27.8926 49.1784 28.6737L7.83577 70.0163Z" fill="#9fa9c6"/>
</svg>
