<svg width="103" height="103" viewBox="0 0 103 103" fill="none" xmlns="http://www.w3.org/2000/svg">
<g filter="url(#filter0_d_407_2809)">
<path d="M5.29172 87.2395C4.12077 88.3877 4.61916 91.5639 4.70426 91.8892C4.78935 92.2144 40.7402 56.3435 40.7964 55.6497C40.8527 54.956 39.6714 52.0685 41.6589 49.4247C43.6464 46.781 47.3589 47.681 48.6714 48.8247C49.9839 49.9685 51.8343 53.2155 49.0435 55.9795C46.2527 58.7435 42.8097 56.7697 42.8097 56.7697C42.8097 56.7697 6.83121 92.6685 6.63642 93.0308C6.63642 93.0308 8.29209 94.465 10.2761 93.2311C12.2602 91.9973 11.5929 90.6916 12.0825 90.26C15.1121 87.5893 22.6795 82.727 28.7618 79.1585C39.0619 73.1154 47.3294 71.1046 49.0435 70.4664C50.7576 69.8282 55.7973 69.2763 56.243 69.1487C56.6888 69.0212 76.4215 42.5542 76.3986 41.7523C76.3757 40.9503 56.963 21.7507 56.4194 21.9179C55.8759 22.0852 29.3464 41.0509 29.0678 42.14C28.7892 43.2291 29.015 45.2961 27.5326 50.0085C26.0503 54.7209 25.3782 58.0301 19.1039 69.1487C12.8296 80.2674 9.3384 85.7293 8.1539 86.0846C6.9694 86.44 6.46266 86.0913 5.29172 87.2395Z" fill="#F0F2FF"/>
<path d="M96.9379 28.4544C97.0161 27.8802 70.3239 1.35778 69.7641 1.28053C69.2043 1.20329 66.2714 4.76913 64.9352 4.7053C63.5989 4.64147 58.2892 4.82471 56.243 6.90028C54.1969 8.97585 54.2456 10.929 55.3211 13.5291C56.3967 16.1292 83.8229 42.7183 84.7778 42.9858C85.7327 43.2532 89.5917 44.603 91.3627 42.0193C93.1337 39.4356 93.6584 33.7875 94.0845 32.0987C94.5106 30.4099 96.8598 29.0286 96.9379 28.4544Z" fill="#F0F2FF"/>
<path d="M5.29172 87.2395C4.12077 88.3877 4.61916 91.5639 4.70426 91.8892C4.78935 92.2144 40.7402 56.3435 40.7964 55.6497C40.8527 54.956 39.6714 52.0685 41.6589 49.4247C43.6464 46.781 47.3589 47.681 48.6714 48.8247C49.9839 49.9685 51.8343 53.2155 49.0435 55.9795C46.2527 58.7435 42.8097 56.7697 42.8097 56.7697C42.8097 56.7697 6.83121 92.6685 6.63642 93.0308C6.63642 93.0308 8.29209 94.465 10.2761 93.2311C12.2602 91.9973 11.5929 90.6916 12.0825 90.26C15.1121 87.5893 22.6795 82.727 28.7618 79.1585C39.0619 73.1154 47.3294 71.1046 49.0435 70.4664C50.7576 69.8282 55.7973 69.2763 56.243 69.1487C56.6888 69.0212 76.4215 42.5542 76.3986 41.7523C76.3757 40.9503 56.963 21.7507 56.4194 21.9179C55.8759 22.0852 29.3464 41.0509 29.0678 42.14C28.7892 43.2291 29.015 45.2961 27.5326 50.0085C26.0503 54.7209 25.3782 58.0301 19.1039 69.1487C12.8296 80.2674 9.3384 85.7293 8.1539 86.0846C6.9694 86.44 6.46266 86.0913 5.29172 87.2395Z" stroke="url(#paint0_linear_407_2809)" stroke-width="1.5" stroke-linecap="round" stroke-linejoin="round"/>
<path d="M96.9379 28.4544C97.0161 27.8802 70.3239 1.35778 69.7641 1.28053C69.2043 1.20329 66.2714 4.76913 64.9352 4.7053C63.5989 4.64147 58.2892 4.82471 56.243 6.90028C54.1969 8.97585 54.2456 10.929 55.3211 13.5291C56.3967 16.1292 83.8229 42.7183 84.7778 42.9858C85.7327 43.2532 89.5917 44.603 91.3627 42.0193C93.1337 39.4356 93.6584 33.7875 94.0845 32.0987C94.5106 30.4099 96.8598 29.0286 96.9379 28.4544Z" stroke="url(#paint1_linear_407_2809)" stroke-width="1.5" stroke-linecap="round" stroke-linejoin="round"/>
</g>
<defs>
<filter id="filter0_d_407_2809" x="0.776367" y="0.529297" width="101.912" height="101.953" filterUnits="userSpaceOnUse" color-interpolation-filters="sRGB">
<feFlood flood-opacity="0" result="BackgroundImageFix"/>
<feColorMatrix in="SourceAlpha" type="matrix" values="0 0 0 0 0 0 0 0 0 0 0 0 0 0 0 0 0 0 127 0" result="hardAlpha"/>
<feOffset dx="1" dy="4"/>
<feGaussianBlur stdDeviation="2"/>
<feColorMatrix type="matrix" values="0 0 0 0 0 0 0 0 0 0 0 0 0 0 0 0 0 0 0.08 0"/>
<feBlend mode="normal" in2="BackgroundImageFix" result="effect1_dropShadow_407_2809"/>
<feBlend mode="normal" in="SourceGraphic" in2="effect1_dropShadow_407_2809" result="shape"/>
</filter>
<linearGradient id="paint0_linear_407_2809" x1="50.7322" y1="1.2793" x2="50.7322" y2="93.732" gradientUnits="userSpaceOnUse">
<stop stop-color="#252E5D"/>
<stop offset="1" stop-color="#25425D"/>
</linearGradient>
<linearGradient id="paint1_linear_407_2809" x1="50.7322" y1="1.2793" x2="50.7322" y2="93.732" gradientUnits="userSpaceOnUse">
<stop stop-color="#252E5D"/>
<stop offset="1" stop-color="#25425D"/>
</linearGradient>
</defs>
</svg>
