<svg width="101" height="101" viewBox="0 0 101 101" fill="none" xmlns="http://www.w3.org/2000/svg">
<g filter="url(#filter0_d_407_2803)">
<path d="M94.4767 90.0052C94.4767 90.0052 7.67667 92.5808 5.61688 90.0052C3.55709 87.4295 5.61688 16.224 5.61688 16.224V2.43312C5.61688 2.43312 93.8319 1.1455 94.4767 2.43312C95.1214 3.72073 94.4767 16.224 94.4767 16.224V90.0052Z" fill="#F0F2FF"/>
<path d="M5.61688 16.224V2.43312C5.61688 2.43312 93.8319 1.1455 94.4767 2.43312C95.1214 3.72073 94.4767 16.224 94.4767 16.224M5.61688 16.224C5.61688 16.224 3.55709 87.4295 5.61688 90.0052C7.67667 92.5808 94.4767 90.0052 94.4767 90.0052V16.224M5.61688 16.224H94.4767M76.4465 9.63901H76.935M49.3736 52.0803V80.3516M49.3736 52.0803L83.0327 52.7698M49.3736 52.0803L82.3595 80.3516M49.3736 80.3516H82.3595M49.3736 80.3516L83.0327 52.7698M82.3595 80.3516L83.0327 52.7698M82.1049 9.63901H82.5934M17.061 27.9462C16.9146 28.0178 17.006 40.3087 17.061 40.358C17.1159 40.4073 82.24 40.4892 82.3595 40.358C82.479 40.2269 82.4254 27.9767 82.3595 27.9462C82.2936 27.9158 17.2073 27.8747 17.061 27.9462ZM17.061 52.0803H37.2564V80.3516H17.061V52.0803Z" stroke="url(#paint0_linear_407_2803)" stroke-width="2" stroke-linecap="round" stroke-linejoin="round"/>
</g>
<defs>
<filter id="filter0_d_407_2803" x="0.701416" y="0.86084" width="100.062" height="99.2891" filterUnits="userSpaceOnUse" color-interpolation-filters="sRGB">
<feFlood flood-opacity="0" result="BackgroundImageFix"/>
<feColorMatrix in="SourceAlpha" type="matrix" values="0 0 0 0 0 0 0 0 0 0 0 0 0 0 0 0 0 0 127 0" result="hardAlpha"/>
<feOffset dx="1" dy="4"/>
<feGaussianBlur stdDeviation="2"/>
<feColorMatrix type="matrix" values="0 0 0 0 0 0 0 0 0 0 0 0 0 0 0 0 0 0 0.08 0"/>
<feBlend mode="normal" in2="BackgroundImageFix" result="effect1_dropShadow_407_2803"/>
<feBlend mode="normal" in="SourceGraphic" in2="effect1_dropShadow_407_2803" result="shape"/>
</filter>
<linearGradient id="paint0_linear_407_2803" x1="49.7323" y1="1.86084" x2="49.7323" y2="91.1499" gradientUnits="userSpaceOnUse">
<stop stop-color="#252E5D"/>
<stop offset="1" stop-color="#25425D"/>
</linearGradient>
</defs>
</svg>
