<svg width="32" height="46" viewBox="0 0 32 46" fill="none" xmlns="http://www.w3.org/2000/svg">
<path d="M0.600952 25.7237L8.73253 39.5065H22.8167L31.091 25.7237L17.9633 2.6005V22.2822C17.9633 22.2822 20.5863 23.3939 20.5863 26.0973C20.5863 30.2633 16.2605 30.2633 15.8933 30.2633C15.526 30.2633 11.1635 30.2633 11.1635 26.0973C11.1635 23.4239 14.1521 22.2822 14.1521 22.2822V2.6001L0.600952 25.7237Z" fill="#191F34"/>
<path d="M23.9175 41.6262L7.79998 41.5849V44.6509H23.9175V41.6262Z" fill="#191F34"/>
<path d="M0.600952 25.7237L8.73253 39.5065H22.8167L31.091 25.7237L17.9633 2.6005V22.2822C17.9633 22.2822 20.5863 23.3939 20.5863 26.0973C20.5863 30.2633 16.2605 30.2633 15.8933 30.2633C15.526 30.2633 11.1635 30.2633 11.1635 26.0973C11.1635 23.4239 14.1521 22.2822 14.1521 22.2822V2.6001L0.600952 25.7237Z" stroke="#191F34"/>
<path d="M23.9175 41.6262L7.79998 41.5849V44.6509H23.9175V41.6262Z" stroke="#191F34"/>
</svg>
