<svg width="16" height="14" viewBox="0 0 16 14" fill="none" xmlns="http://www.w3.org/2000/svg">
<path fill-rule="evenodd" clip-rule="evenodd" d="M8.26331 1.64075C9.08081 0.68074 10.3333 0.0732422 11.6383 0.0732422C13.9483 0.0732422 15.7633 1.88824 15.7633 4.19824C15.7633 7.03091 13.2175 9.33946 9.36033 12.8371L9.35081 12.8457L8.26331 13.8357L7.17581 12.8532L7.1462 12.8263C3.30028 9.33144 0.763306 7.026 0.763306 4.19824C0.763306 1.88824 2.57831 0.0732422 4.88831 0.0732422C6.19331 0.0732422 7.44581 0.68074 8.26331 1.64075ZM8.26331 11.8107L8.33831 11.7357C11.9083 8.50323 14.2633 6.36574 14.2633 4.19824C14.2633 2.69824 13.1383 1.57324 11.6383 1.57324C10.4833 1.57324 9.3583 2.31573 8.96831 3.34325H7.56581C7.16831 2.31573 6.04331 1.57324 4.88831 1.57324C3.38831 1.57324 2.26331 2.69824 2.26331 4.19824C2.26331 6.36574 4.61831 8.50323 8.18831 11.7357L8.26331 11.8107Z" fill="#EF7F7A"/>
</svg>
