<svg width="92" height="106" viewBox="0 0 92 106" fill="none" xmlns="http://www.w3.org/2000/svg">
<path d="M68.3951 23.4997C69.1761 22.7187 69.1801 21.4468 68.3507 20.7173C62.6668 15.7181 55.3387 12.9374 47.7238 12.9374C39.4401 12.9374 31.4957 16.2281 25.6383 22.0855C19.7808 27.9429 16.4902 35.8873 16.4902 44.171C16.4902 51.7859 19.2709 59.114 24.2701 64.7979C24.9996 65.6273 26.2714 65.6234 27.0525 64.8423L47.7238 44.171L68.3951 23.4997Z" fill="#DFE2EC"/>
<path d="M23.4997 82.5003C22.7187 83.2813 22.7148 84.5532 23.5442 85.2827C29.228 90.2819 36.5562 93.0626 44.171 93.0626C52.4547 93.0626 60.3991 89.7719 66.2565 83.9145C72.114 78.0571 75.4047 70.1127 75.4047 61.829C75.4047 54.2141 72.6239 46.886 67.6247 41.2021C66.8952 40.3727 65.6234 40.3766 64.8423 41.1577L44.171 61.829L23.4997 82.5003Z" fill="#AFB7D0"/>
</svg>
