<svg width="27" height="29" viewBox="0 0 27 29" fill="none" xmlns="http://www.w3.org/2000/svg">
<path d="M10.6847 26.3481V28.8481H15.6847V26.3481H10.6847ZM13.1847 3.00366L14.9032 1.18797C13.9338 0.270467 12.4146 0.27629 11.4523 1.2012L13.1847 3.00366ZM1.09977 11.1512C0.104303 12.108 0.0729263 13.6906 1.02969 14.6861C1.98646 15.6815 3.56906 15.7129 4.56453 14.7561L1.09977 11.1512ZM21.9789 14.7694C22.9816 15.7185 24.5639 15.675 25.5131 14.6722C26.4622 13.6694 26.4187 12.0871 25.4159 11.138L21.9789 14.7694ZM15.6847 26.3481V3.00366H10.6847V26.3481H15.6847ZM11.4523 1.2012L1.09977 11.1512L4.56453 14.7561L14.9171 4.80612L11.4523 1.2012ZM11.4662 4.81935L21.9789 14.7694L25.4159 11.138L14.9032 1.18797L11.4662 4.81935Z" fill="white"/>
</svg>
